<mxfile host="app.diagrams.net" modified="2023-08-29T00:02:04.536Z" agent="Mozilla/5.0 (Macintosh; Intel Mac OS X 10_15_7) AppleWebKit/537.36 (KHTML, like Gecko) Chrome/115.0.0.0 Safari/537.36" etag="H5cRoWE_g0hnc_QWSqKI" version="21.6.9" type="device">
  <diagram name="PÃ¡gina-1" id="E9SbD8aWYr9WSGX9Nboo">
    <mxGraphModel dx="954" dy="618" grid="1" gridSize="10" guides="1" tooltips="1" connect="1" arrows="1" fold="1" page="1" pageScale="1" pageWidth="827" pageHeight="1169" math="0" shadow="0">
      <root>
        <mxCell id="0" />
        <mxCell id="1" parent="0" />
        <mxCell id="0Q-xwAfRr16WSUYGtqMm-1" value="" style="rounded=0;whiteSpace=wrap;html=1;" vertex="1" parent="1">
          <mxGeometry x="360" y="110" width="890" height="750" as="geometry" />
        </mxCell>
        <mxCell id="0Q-xwAfRr16WSUYGtqMm-50" style="edgeStyle=orthogonalEdgeStyle;rounded=0;orthogonalLoop=1;jettySize=auto;html=1;" edge="1" parent="1" source="0Q-xwAfRr16WSUYGtqMm-3" target="0Q-xwAfRr16WSUYGtqMm-8">
          <mxGeometry relative="1" as="geometry" />
        </mxCell>
        <mxCell id="0Q-xwAfRr16WSUYGtqMm-56" style="edgeStyle=orthogonalEdgeStyle;rounded=0;orthogonalLoop=1;jettySize=auto;html=1;" edge="1" parent="1" source="0Q-xwAfRr16WSUYGtqMm-3" target="0Q-xwAfRr16WSUYGtqMm-7">
          <mxGeometry relative="1" as="geometry" />
        </mxCell>
        <mxCell id="0Q-xwAfRr16WSUYGtqMm-57" style="edgeStyle=orthogonalEdgeStyle;rounded=0;orthogonalLoop=1;jettySize=auto;html=1;" edge="1" parent="1" source="0Q-xwAfRr16WSUYGtqMm-3" target="0Q-xwAfRr16WSUYGtqMm-10">
          <mxGeometry relative="1" as="geometry" />
        </mxCell>
        <mxCell id="0Q-xwAfRr16WSUYGtqMm-68" style="edgeStyle=orthogonalEdgeStyle;rounded=0;orthogonalLoop=1;jettySize=auto;html=1;" edge="1" parent="1" source="0Q-xwAfRr16WSUYGtqMm-3" target="0Q-xwAfRr16WSUYGtqMm-12">
          <mxGeometry relative="1" as="geometry" />
        </mxCell>
        <mxCell id="0Q-xwAfRr16WSUYGtqMm-3" value="Actor" style="shape=umlActor;verticalLabelPosition=bottom;verticalAlign=top;html=1;outlineConnect=0;" vertex="1" parent="1">
          <mxGeometry x="790" y="480" width="30" height="60" as="geometry" />
        </mxCell>
        <mxCell id="0Q-xwAfRr16WSUYGtqMm-36" style="edgeStyle=orthogonalEdgeStyle;rounded=0;orthogonalLoop=1;jettySize=auto;html=1;" edge="1" parent="1" source="0Q-xwAfRr16WSUYGtqMm-7" target="0Q-xwAfRr16WSUYGtqMm-20">
          <mxGeometry relative="1" as="geometry" />
        </mxCell>
        <mxCell id="0Q-xwAfRr16WSUYGtqMm-38" style="edgeStyle=orthogonalEdgeStyle;rounded=0;orthogonalLoop=1;jettySize=auto;html=1;entryX=0;entryY=0.5;entryDx=0;entryDy=0;entryPerimeter=0;" edge="1" parent="1" source="0Q-xwAfRr16WSUYGtqMm-7" target="0Q-xwAfRr16WSUYGtqMm-64">
          <mxGeometry relative="1" as="geometry">
            <mxPoint x="1010" y="520" as="targetPoint" />
          </mxGeometry>
        </mxCell>
        <mxCell id="0Q-xwAfRr16WSUYGtqMm-7" value="Encontra Nada" style="rounded=1;whiteSpace=wrap;html=1;" vertex="1" parent="1">
          <mxGeometry x="880" y="490" width="70" height="40" as="geometry" />
        </mxCell>
        <mxCell id="0Q-xwAfRr16WSUYGtqMm-51" style="edgeStyle=orthogonalEdgeStyle;rounded=0;orthogonalLoop=1;jettySize=auto;html=1;" edge="1" parent="1" source="0Q-xwAfRr16WSUYGtqMm-8" target="0Q-xwAfRr16WSUYGtqMm-17">
          <mxGeometry relative="1" as="geometry" />
        </mxCell>
        <mxCell id="0Q-xwAfRr16WSUYGtqMm-52" style="edgeStyle=orthogonalEdgeStyle;rounded=0;orthogonalLoop=1;jettySize=auto;html=1;" edge="1" parent="1" source="0Q-xwAfRr16WSUYGtqMm-8" target="0Q-xwAfRr16WSUYGtqMm-18">
          <mxGeometry relative="1" as="geometry" />
        </mxCell>
        <mxCell id="0Q-xwAfRr16WSUYGtqMm-8" value="Encontra nada,&amp;nbsp;" style="rounded=1;whiteSpace=wrap;html=1;" vertex="1" parent="1">
          <mxGeometry x="770" y="600" width="70" height="40" as="geometry" />
        </mxCell>
        <mxCell id="0Q-xwAfRr16WSUYGtqMm-37" style="edgeStyle=orthogonalEdgeStyle;rounded=0;orthogonalLoop=1;jettySize=auto;html=1;" edge="1" parent="1" source="0Q-xwAfRr16WSUYGtqMm-10" target="0Q-xwAfRr16WSUYGtqMm-20">
          <mxGeometry relative="1" as="geometry" />
        </mxCell>
        <mxCell id="0Q-xwAfRr16WSUYGtqMm-73" style="edgeStyle=orthogonalEdgeStyle;rounded=0;orthogonalLoop=1;jettySize=auto;html=1;" edge="1" parent="1" source="0Q-xwAfRr16WSUYGtqMm-10" target="0Q-xwAfRr16WSUYGtqMm-72">
          <mxGeometry relative="1" as="geometry" />
        </mxCell>
        <mxCell id="0Q-xwAfRr16WSUYGtqMm-10" value="Piscina de veneno(-50%)" style="rounded=1;whiteSpace=wrap;html=1;" vertex="1" parent="1">
          <mxGeometry x="770" y="390" width="70" height="40" as="geometry" />
        </mxCell>
        <mxCell id="0Q-xwAfRr16WSUYGtqMm-60" style="edgeStyle=orthogonalEdgeStyle;rounded=0;orthogonalLoop=1;jettySize=auto;html=1;" edge="1" parent="1" source="0Q-xwAfRr16WSUYGtqMm-12" target="0Q-xwAfRr16WSUYGtqMm-59">
          <mxGeometry relative="1" as="geometry" />
        </mxCell>
        <mxCell id="0Q-xwAfRr16WSUYGtqMm-53" style="edgeStyle=orthogonalEdgeStyle;rounded=0;orthogonalLoop=1;jettySize=auto;html=1;" edge="1" parent="1" source="0Q-xwAfRr16WSUYGtqMm-17" target="0Q-xwAfRr16WSUYGtqMm-19">
          <mxGeometry relative="1" as="geometry" />
        </mxCell>
        <mxCell id="0Q-xwAfRr16WSUYGtqMm-17" value="Um Monstro&lt;br&gt;MOSCONA" style="rounded=1;whiteSpace=wrap;html=1;" vertex="1" parent="1">
          <mxGeometry x="770" y="690" width="70" height="40" as="geometry" />
        </mxCell>
        <mxCell id="0Q-xwAfRr16WSUYGtqMm-18" value="Encontrou o simbolo" style="rounded=1;whiteSpace=wrap;html=1;" vertex="1" parent="1">
          <mxGeometry x="620" y="600" width="70" height="40" as="geometry" />
        </mxCell>
        <mxCell id="0Q-xwAfRr16WSUYGtqMm-19" value="PORTAL" style="ellipse;shape=cloud;whiteSpace=wrap;html=1;fillColor=#dae8fc;strokeColor=#6c8ebf;" vertex="1" parent="1">
          <mxGeometry x="745" y="770" width="120" height="80" as="geometry" />
        </mxCell>
        <mxCell id="0Q-xwAfRr16WSUYGtqMm-20" value="Encontra-se com uma parede" style="rounded=1;whiteSpace=wrap;html=1;" vertex="1" parent="1">
          <mxGeometry x="880" y="390" width="70" height="40" as="geometry" />
        </mxCell>
        <mxCell id="0Q-xwAfRr16WSUYGtqMm-39" style="edgeStyle=orthogonalEdgeStyle;rounded=0;orthogonalLoop=1;jettySize=auto;html=1;entryX=0;entryY=0.5;entryDx=0;entryDy=0;" edge="1" parent="1" source="0Q-xwAfRr16WSUYGtqMm-64" target="0Q-xwAfRr16WSUYGtqMm-67">
          <mxGeometry relative="1" as="geometry">
            <mxPoint x="1070" y="510" as="sourcePoint" />
            <mxPoint x="1140" y="520" as="targetPoint" />
          </mxGeometry>
        </mxCell>
        <mxCell id="0Q-xwAfRr16WSUYGtqMm-41" style="edgeStyle=orthogonalEdgeStyle;rounded=0;orthogonalLoop=1;jettySize=auto;html=1;" edge="1" parent="1" source="0Q-xwAfRr16WSUYGtqMm-23" target="0Q-xwAfRr16WSUYGtqMm-25">
          <mxGeometry relative="1" as="geometry" />
        </mxCell>
        <mxCell id="0Q-xwAfRr16WSUYGtqMm-23" value="Piscina de veneno(-50%)" style="rounded=1;whiteSpace=wrap;html=1;" vertex="1" parent="1">
          <mxGeometry x="1010" y="590" width="70" height="40" as="geometry" />
        </mxCell>
        <mxCell id="0Q-xwAfRr16WSUYGtqMm-58" style="edgeStyle=orthogonalEdgeStyle;rounded=0;orthogonalLoop=1;jettySize=auto;html=1;" edge="1" parent="1" source="0Q-xwAfRr16WSUYGtqMm-25" target="0Q-xwAfRr16WSUYGtqMm-27">
          <mxGeometry relative="1" as="geometry" />
        </mxCell>
        <mxCell id="0Q-xwAfRr16WSUYGtqMm-25" value="PORTA" style="rhombus;whiteSpace=wrap;html=1;fillColor=#ffe6cc;strokeColor=#d79b00;" vertex="1" parent="1">
          <mxGeometry x="1005" y="670" width="80" height="80" as="geometry" />
        </mxCell>
        <mxCell id="0Q-xwAfRr16WSUYGtqMm-29" value="" style="edgeStyle=orthogonalEdgeStyle;rounded=0;orthogonalLoop=1;jettySize=auto;html=1;" edge="1" parent="1" target="0Q-xwAfRr16WSUYGtqMm-28">
          <mxGeometry relative="1" as="geometry">
            <mxPoint x="1180" y="495" as="sourcePoint" />
          </mxGeometry>
        </mxCell>
        <mxCell id="0Q-xwAfRr16WSUYGtqMm-42" style="edgeStyle=orthogonalEdgeStyle;rounded=0;orthogonalLoop=1;jettySize=auto;html=1;" edge="1" parent="1" source="0Q-xwAfRr16WSUYGtqMm-67" target="0Q-xwAfRr16WSUYGtqMm-25">
          <mxGeometry relative="1" as="geometry">
            <mxPoint x="1180" y="545" as="sourcePoint" />
            <Array as="points">
              <mxPoint x="1180" y="710" />
            </Array>
          </mxGeometry>
        </mxCell>
        <mxCell id="0Q-xwAfRr16WSUYGtqMm-27" value="Saida" style="ellipse;whiteSpace=wrap;html=1;fillColor=#dae8fc;strokeColor=#6c8ebf;" vertex="1" parent="1">
          <mxGeometry x="985" y="820" width="120" height="80" as="geometry" />
        </mxCell>
        <mxCell id="0Q-xwAfRr16WSUYGtqMm-34" style="edgeStyle=orthogonalEdgeStyle;rounded=0;orthogonalLoop=1;jettySize=auto;html=1;" edge="1" parent="1" source="0Q-xwAfRr16WSUYGtqMm-28" target="0Q-xwAfRr16WSUYGtqMm-33">
          <mxGeometry relative="1" as="geometry" />
        </mxCell>
        <mxCell id="0Q-xwAfRr16WSUYGtqMm-28" value="Curinha" style="whiteSpace=wrap;html=1;rounded=1;" vertex="1" parent="1">
          <mxGeometry x="1135.5" y="390" width="89" height="40" as="geometry" />
        </mxCell>
        <mxCell id="0Q-xwAfRr16WSUYGtqMm-35" style="edgeStyle=orthogonalEdgeStyle;rounded=0;orthogonalLoop=1;jettySize=auto;html=1;" edge="1" parent="1" source="0Q-xwAfRr16WSUYGtqMm-33" target="0Q-xwAfRr16WSUYGtqMm-20">
          <mxGeometry relative="1" as="geometry" />
        </mxCell>
        <mxCell id="0Q-xwAfRr16WSUYGtqMm-46" value="" style="edgeStyle=orthogonalEdgeStyle;rounded=0;orthogonalLoop=1;jettySize=auto;html=1;" edge="1" parent="1" source="0Q-xwAfRr16WSUYGtqMm-33" target="0Q-xwAfRr16WSUYGtqMm-66">
          <mxGeometry relative="1" as="geometry">
            <mxPoint x="1040" y="330" as="targetPoint" />
          </mxGeometry>
        </mxCell>
        <mxCell id="0Q-xwAfRr16WSUYGtqMm-33" value="Narrativa" style="whiteSpace=wrap;html=1;rounded=1;" vertex="1" parent="1">
          <mxGeometry x="995" y="390" width="90" height="40" as="geometry" />
        </mxCell>
        <mxCell id="0Q-xwAfRr16WSUYGtqMm-48" value="" style="edgeStyle=orthogonalEdgeStyle;rounded=0;orthogonalLoop=1;jettySize=auto;html=1;" edge="1" parent="1" source="0Q-xwAfRr16WSUYGtqMm-66" target="0Q-xwAfRr16WSUYGtqMm-47">
          <mxGeometry relative="1" as="geometry">
            <mxPoint x="1040" y="270" as="sourcePoint" />
          </mxGeometry>
        </mxCell>
        <mxCell id="0Q-xwAfRr16WSUYGtqMm-47" value="Chave" style="ellipse;whiteSpace=wrap;html=1;rounded=1;" vertex="1" parent="1">
          <mxGeometry x="1000" y="120" width="80" height="80" as="geometry" />
        </mxCell>
        <mxCell id="0Q-xwAfRr16WSUYGtqMm-55" value="" style="endArrow=none;dashed=1;html=1;dashPattern=1 3;strokeWidth=2;rounded=0;" edge="1" parent="1">
          <mxGeometry width="50" height="50" relative="1" as="geometry">
            <mxPoint x="1030" y="70" as="sourcePoint" />
            <mxPoint x="1030" y="80" as="targetPoint" />
            <Array as="points">
              <mxPoint x="1150" y="140" />
              <mxPoint x="1110" y="220" />
              <mxPoint x="1010" y="230" />
              <mxPoint x="940" y="170" />
              <mxPoint x="960" y="110" />
            </Array>
          </mxGeometry>
        </mxCell>
        <mxCell id="0Q-xwAfRr16WSUYGtqMm-63" style="edgeStyle=orthogonalEdgeStyle;rounded=0;orthogonalLoop=1;jettySize=auto;html=1;" edge="1" parent="1" source="0Q-xwAfRr16WSUYGtqMm-59" target="0Q-xwAfRr16WSUYGtqMm-62">
          <mxGeometry relative="1" as="geometry" />
        </mxCell>
        <mxCell id="0Q-xwAfRr16WSUYGtqMm-59" value="Encontrou um Maicris (BOSS)" style="whiteSpace=wrap;html=1;aspect=fixed;" vertex="1" parent="1">
          <mxGeometry x="550" y="470" width="80" height="80" as="geometry" />
        </mxCell>
        <mxCell id="0Q-xwAfRr16WSUYGtqMm-62" value="Arma 2" style="shape=tape;whiteSpace=wrap;html=1;fillColor=#f8cecc;strokeColor=#b85450;" vertex="1" parent="1">
          <mxGeometry x="380" y="460" width="120" height="100" as="geometry" />
        </mxCell>
        <mxCell id="0Q-xwAfRr16WSUYGtqMm-75" style="edgeStyle=orthogonalEdgeStyle;rounded=0;orthogonalLoop=1;jettySize=auto;html=1;" edge="1" parent="1" source="0Q-xwAfRr16WSUYGtqMm-64" target="0Q-xwAfRr16WSUYGtqMm-23">
          <mxGeometry relative="1" as="geometry" />
        </mxCell>
        <mxCell id="0Q-xwAfRr16WSUYGtqMm-64" value="Arma 1" style="shape=tape;whiteSpace=wrap;html=1;fillColor=#f8cecc;strokeColor=#b85450;" vertex="1" parent="1">
          <mxGeometry x="1000" y="480" width="90" height="60" as="geometry" />
        </mxCell>
        <mxCell id="0Q-xwAfRr16WSUYGtqMm-66" value="Encontrou um Creeper (BOSS)" style="whiteSpace=wrap;html=1;aspect=fixed;" vertex="1" parent="1">
          <mxGeometry x="1000" y="260" width="80" height="80" as="geometry" />
        </mxCell>
        <mxCell id="0Q-xwAfRr16WSUYGtqMm-67" value="Capivara locona e ganha Chave 2" style="ellipse;whiteSpace=wrap;html=1;aspect=fixed;" vertex="1" parent="1">
          <mxGeometry x="1140" y="470" width="80" height="80" as="geometry" />
        </mxCell>
        <mxCell id="0Q-xwAfRr16WSUYGtqMm-12" value="PORTA" style="rhombus;whiteSpace=wrap;html=1;fillColor=#ffe6cc;strokeColor=#d79b00;" vertex="1" parent="1">
          <mxGeometry x="677" y="470" width="80" height="80" as="geometry" />
        </mxCell>
        <mxCell id="0Q-xwAfRr16WSUYGtqMm-72" value="Encontra-se com uma parede" style="rounded=1;whiteSpace=wrap;html=1;" vertex="1" parent="1">
          <mxGeometry x="770" y="290" width="70" height="40" as="geometry" />
        </mxCell>
      </root>
    </mxGraphModel>
  </diagram>
</mxfile>
